# xmcd
#
# Track frame offsets: 
#        151
#        17674
#        33354
#        51875
#        68968
#        84115
#        102197
#        116559
#        133672
#        149325
#        166123
#
# Disc length: 2411 seconds
#
# Revision: 4
# Processed by: cddbd v1.5.2PL0 Copyright (c) Steve Scherf et al.
# Submitted via: ExactAudioCopy v0.99pb1
#
DISCID=8a09690b
DTITLE=Shannon Curfman - Loud Guitars, Big Suspicions (Original Pop Se
DTITLE=nse Version)
DYEAR=1999
DGENRE=Rock
TTITLE0=Few And Far Between
TTITLE1=No Riders
TTITLE2=That's How It Feels
TTITLE3=I Don't Make Promise (I Can't Break)
TTITLE4=Love Me Like That
TTITLE5=Hard To Make A Stand
TTITLE6=I'm Coming Home
TTITLE7=Never Enough
TTITLE8=True Friends
TTITLE9=Musta Been Love
TTITLE10=Real Bad Feeling
EXTD=
EXTT0=
EXTT1=
EXTT2=
EXTT3=
EXTT4=
EXTT5=
EXTT6=
EXTT7=
EXTT8=
EXTT9=
EXTT10=
PLAYORDER=
